<?xml version="1.0" standalone="no"?>
<!DOCTYPE svg PUBLIC "-//W3C//DTD SVG 20010904//EN"
 "http://www.w3.org/TR/2001/REC-SVG-20010904/DTD/svg10.dtd">
<svg version="1.0" xmlns="http://www.w3.org/2000/svg"
 width="512.000000pt" height="512.000000pt" viewBox="0 0 512.000000 512.000000"
 preserveAspectRatio="xMidYMid meet">

<g transform="translate(0.000000,512.000000) scale(0.100000,-0.100000)"
fill="#413B3B" stroke="none">
<path d="M2345 5114 c-65 -7 -83 -13 -105 -36 -27 -29 -26 -80 3 -114 l23 -26
253 1 c266 2 280 4 300 48 17 38 13 60 -17 94 l-28 32 -195 2 c-107 2 -212 1
-234 -1z"/>
<path d="M1815 5019 c-88 -25 -115 -49 -115 -101 0 -45 35 -88 73 -88 47 0
192 49 210 71 27 34 23 93 -9 118 -33 26 -68 26 -159 0z"/>
<path d="M201 4968 c-19 -7 -54 -30 -77 -52 -118 -114 -92 -323 85 -676 500
-994 2257 -2848 3571 -3767 392 -274 754 -453 952 -469 130 -11 223 30 271
120 19 35 22 56 22 146 -1 92 -5 117 -34 200 -80 234 -241 515 -508 887 l-125
175 50 112 c133 298 191 596 179 925 -11 318 -87 603 -232 878 -321 607 -907
1005 -1595 1084 -146 16 -433 6 -576 -20 -185 -34 -345 -85 -516 -164 l-87
-39 -108 79 c-369 272 -712 473 -942 550 -86 29 -124 37 -201 39 -55 2 -110
-2 -129 -8z m2654 -986 c459 -104 834 -392 1041 -798 57 -114 111 -266 140
-404 27 -122 27 -458 0 -580 -43 -200 -116 -381 -216 -535 -99 -153 -172 -205
-286 -205 -91 0 -136 21 -279 130 -608 462 -1192 1049 -1643 1650 -88 118
-102 151 -102 237 0 142 78 231 310 356 145 78 299 130 480 163 115 20 439 12
555 -14z"/>
<path d="M2366 3829 c-134 -18 -315 -73 -426 -129 -30 -15 -96 -55 -146 -88
-153 -100 -152 -125 12 -337 388 -501 842 -968 1319 -1359 188 -154 353 -276
383 -282 51 -10 92 18 149 104 100 148 166 306 205 485 28 135 31 379 5 511
-55 272 -167 491 -350 682 -203 212 -442 343 -728 399 -101 20 -328 27 -423
14z"/>
<path d="M4545 4035 c-35 -34 -33 -81 5 -133 16 -23 38 -46 49 -51 56 -30 121
10 121 74 0 39 -46 118 -75 129 -35 13 -76 6 -100 -19z"/>
<path d="M4785 3625 c-14 -14 -25 -36 -25 -51 0 -15 24 -89 54 -163 30 -75 66
-179 81 -231 32 -112 56 -144 111 -144 42 0 84 39 84 79 0 76 -155 494 -193
520 -33 23 -84 19 -112 -10z"/>
<path d="M616 3158 c-25 -23 -48 -90 -80 -231 -43 -187 -57 -453 -35 -655 41
-383 210 -783 457 -1085 79 -96 259 -269 353 -339 407 -304 919 -447 1420
-398 175 18 414 71 464 104 25 17 40 64 30 96 -6 18 -313 282 -378 324 -23 16
-35 16 -123 5 -131 -16 -370 -6 -494 21 -141 30 -211 55 -355 126 -302 148
-535 375 -684 663 -115 226 -159 393 -168 639 -4 105 -1 194 7 252 11 81 10
93 -5 117 -24 36 -243 300 -286 345 -44 45 -84 50 -123 16z"/>
<path d="M1205 2520 c-15 -17 -17 -31 -10 -107 9 -112 37 -259 65 -343 151
-444 503 -771 955 -885 101 -26 304 -50 335 -40 25 8 44 41 33 59 -4 7 -100
98 -213 202 -324 300 -667 645 -1052 1062 -37 39 -73 72 -81 72 -8 0 -22 -9
-32 -20z"/>
<path d="M55 1785 c-14 -13 -25 -35 -25 -49 0 -56 124 -369 164 -413 45 -52
146 -13 146 55 0 16 -17 67 -39 113 -21 46 -53 127 -71 179 -18 52 -42 105
-53 118 -29 31 -89 30 -122 -3z"/>
<path d="M392 1133 c-17 -6 -42 -57 -42 -83 0 -33 53 -80 90 -80 73 0 109 92
57 148 -20 21 -71 29 -105 15z"/>
<path d="M870 590 c-46 -46 -35 -104 29 -147 45 -31 77 -29 112 6 42 42 40 84
-7 127 -43 41 -101 47 -134 14z"/>
<path d="M1179 371 c-35 -35 -38 -77 -9 -114 29 -37 331 -187 376 -187 42 0
84 37 84 74 0 56 -17 69 -203 164 -100 51 -190 92 -200 92 -10 0 -32 -13 -48
-29z"/>
</g>
</svg>
