<?xml version="1.0" standalone="no"?>
<!DOCTYPE svg PUBLIC "-//W3C//DTD SVG 20010904//EN"
 "http://www.w3.org/TR/2001/REC-SVG-20010904/DTD/svg10.dtd">
<svg version="1.0" xmlns="http://www.w3.org/2000/svg"
 width="512.000000pt" height="512.000000pt" viewBox="0 0 512.000000 512.000000"
 preserveAspectRatio="xMidYMid meet">

<g transform="translate(0.000000,512.000000) scale(0.100000,-0.100000)"
fill="#413B3B" stroke="none">
<path d="M0 5045 l0 -75 75 0 75 0 0 75 0 75 -75 0 -75 0 0 -75z"/>
<path d="M460 4745 l0 -75 -75 0 -75 0 0 -75 0 -75 75 0 75 0 0 -75 0 -75 75
0 75 0 0 75 0 75 75 0 75 0 0 75 0 75 -75 0 -75 0 0 75 0 75 -75 0 -75 0 0
-75z"/>
<path d="M3805 3969 c-539 -434 -981 -793 -982 -797 -2 -4 19 -31 45 -60 l47
-53 423 340 c232 187 422 338 422 335 0 -2 -353 -438 -785 -967 l-785 -962
285 -5 286 -5 -613 -611 -613 -612 -95 -46 c-121 -59 -217 -80 -329 -72 -168
13 -307 80 -442 215 -136 137 -199 286 -200 468 0 159 48 287 160 424 33 41
312 326 620 634 l561 560 0 -288 c0 -175 4 -287 9 -285 5 2 166 129 357 283
191 154 352 283 357 286 10 7 -71 117 -86 118 -4 1 -114 -85 -245 -190 l-237
-192 -5 312 -5 311 -726 -727 c-750 -752 -782 -788 -845 -930 -62 -140 -84
-326 -54 -468 89 -429 529 -746 936 -674 165 29 305 99 444 222 47 41 386 377
755 746 l670 671 -313 0 c-171 0 -312 2 -312 5 0 3 509 629 1131 1392 1264
1551 1153 1413 1148 1412 -2 0 -445 -356 -984 -790z"/>
<path d="M2887 4622 c-26 -26 -47 -52 -47 -58 0 -5 22 -31 48 -57 l48 -47 54
55 54 55 -49 50 c-27 27 -52 50 -55 50 -3 0 -27 -22 -53 -48z"/>
<path d="M1602 3347 l-1112 -1112 53 -53 52 -52 1113 1113 1112 1112 -53 53
-52 52 -1113 -1113z"/>
<path d="M0 4135 l0 -75 75 0 75 0 0 75 0 75 -75 0 -75 0 0 -75z"/>
<path d="M2830 3985 l-55 -55 53 -52 52 -53 55 55 55 55 -53 53 -53 52 -54
-55z"/>
<path d="M2372 3527 l-292 -292 53 -53 52 -52 295 295 295 295 -50 50 c-27 27
-52 50 -55 50 -3 0 -137 -132 -298 -293z"/>
<path d="M4540 3035 l-55 -55 53 -52 52 -53 55 55 55 55 -53 53 -53 52 -54
-55z"/>
<path d="M2633 3027 c-28 -23 -52 -46 -52 -52 0 -5 19 -34 43 -62 l44 -53 56
46 c31 25 56 47 56 50 0 8 -84 114 -90 113 -3 0 -28 -19 -57 -42z"/>
<path d="M3887 2922 c-26 -26 -47 -52 -47 -58 0 -5 22 -31 48 -57 l48 -47 54
55 54 55 -49 50 c-27 27 -52 50 -55 50 -3 0 -27 -22 -53 -48z"/>
<path d="M3237 1742 l-1127 -1127 53 -53 52 -52 1130 1130 1130 1130 -50 50
c-27 27 -52 50 -55 50 -3 0 -512 -507 -1133 -1128z"/>
<path d="M3430 2465 l-295 -295 53 -52 52 -53 295 295 295 295 -53 53 -52 52
-295 -295z"/>
<path d="M1090 1649 c-213 -24 -402 -184 -455 -384 -56 -216 38 -452 229 -577
86 -56 168 -78 285 -78 153 0 257 44 363 151 114 116 174 296 151 449 -10 63
-63 200 -78 200 -4 0 -109 -63 -122 -74 -1 -1 9 -24 22 -51 53 -108 40 -248
-34 -363 -43 -65 -87 -102 -167 -139 -50 -23 -65 -25 -152 -21 -87 3 -104 7
-160 37 -239 129 -273 454 -63 619 112 89 265 110 385 54 l62 -29 38 58 c21
32 35 63 31 69 -11 17 -97 57 -150 68 -78 17 -115 19 -185 11z"/>
<path d="M920 1205 l0 -75 75 0 75 0 0 75 0 75 -75 0 -75 0 0 -75z"/>
<path d="M4970 985 l0 -75 75 0 75 0 0 75 0 75 -75 0 -75 0 0 -75z"/>
<path d="M4510 685 l0 -75 -75 0 -75 0 0 -75 0 -75 75 0 75 0 0 -75 0 -75 75
0 75 0 0 75 0 75 75 0 75 0 0 75 0 75 -75 0 -75 0 0 75 0 75 -75 0 -75 0 0
-75z"/>
<path d="M4970 75 l0 -75 75 0 75 0 0 75 0 75 -75 0 -75 0 0 -75z"/>
</g>
</svg>
