<?xml version="1.0" standalone="no"?>
<!DOCTYPE svg PUBLIC "-//W3C//DTD SVG 20010904//EN"
 "http://www.w3.org/TR/2001/REC-SVG-20010904/DTD/svg10.dtd">
<svg version="1.0" xmlns="http://www.w3.org/2000/svg"
 width="512.000000pt" height="512.000000pt" viewBox="0 0 512.000000 512.000000"
 preserveAspectRatio="xMidYMid meet">

<g transform="translate(0.000000,512.000000) scale(0.100000,-0.100000)"
fill="#413B3B" stroke="none">
<path d="M3537 5070 c-54 -50 -55 -50 -121 -50 -58 0 -70 -3 -91 -25 -22 -21
-25 -33 -25 -91 0 -66 0 -67 -50 -121 -35 -39 -50 -63 -50 -83 0 -20 15 -44
50 -83 50 -54 50 -55 50 -121 0 -58 3 -70 25 -91 20 -21 34 -25 80 -25 37 0
55 -4 55 -12 0 -7 -34 -152 -75 -323 -41 -170 -75 -324 -75 -342 0 -39 33 -73
70 -73 55 0 64 21 139 332 39 161 71 299 71 306 0 7 12 12 29 12 21 0 45 14
84 50 54 49 56 50 119 50 41 0 71 5 86 15 16 12 27 13 41 5 22 -11 443 -280
450 -286 3 -2 -14 -22 -37 -45 -59 -56 -57 -84 8 -146 l50 -47 0 -72 c0 -85
14 -104 78 -104 26 0 42 -5 42 -12 0 -6 -53 -181 -117 -388 l-118 -377 -36 4
c-34 5 -41 1 -85 -46 l-48 -51 -72 0 c-93 0 -104 -11 -104 -108 0 -70 0 -70
-42 -106 -31 -27 -51 -36 -77 -36 -20 0 -137 -7 -261 -15 -310 -20 -280 -23
-280 25 0 46 -34 90 -70 90 -16 0 -20 5 -16 18 22 74 156 650 156 673 0 16 -9
38 -20 49 -25 25 -81 26 -103 2 -10 -11 -48 -149 -92 -333 -42 -173 -78 -321
-81 -329 -8 -26 -98 -80 -133 -80 -44 0 -81 -38 -81 -83 0 -22 -10 -47 -30
-73 -36 -48 -37 -77 -5 -120 14 -18 25 -36 24 -41 0 -4 -34 -36 -75 -71 -42
-36 -77 -74 -80 -88 -13 -53 37 -104 88 -90 13 3 54 33 91 66 38 33 76 60 86
60 9 0 35 -13 57 -30 49 -37 79 -37 128 0 26 20 51 30 73 30 46 0 83 37 83 83
0 19 8 44 18 56 16 20 34 22 314 38 246 14 299 15 312 4 12 -10 16 -32 16 -86
0 -94 11 -105 106 -105 l70 0 47 -50 c64 -68 90 -68 154 0 l47 50 72 0 c93 0
104 11 104 105 l0 69 50 48 c39 37 50 54 50 78 0 24 -11 41 -50 78 l-50 48 0
70 c0 85 -14 104 -78 104 -34 0 -42 4 -41 18 0 9 53 183 117 387 l117 370 37
-3 c33 -3 41 2 84 47 l48 51 72 0 c93 0 104 11 104 105 l0 69 50 48 c68 65 68
91 0 156 l-50 48 0 70 c0 93 -11 104 -106 104 l-70 0 -47 50 c-36 38 -54 50
-77 50 -23 0 -42 -12 -78 -50 l-48 -50 -67 0 c-37 0 -75 -5 -85 -11 -15 -10
-54 11 -243 131 -123 78 -228 146 -233 150 -5 5 9 29 33 56 56 64 54 88 -9
157 -50 54 -50 55 -50 121 0 58 -3 70 -25 91 -21 22 -33 25 -91 25 -66 0 -67
0 -121 50 -39 35 -63 50 -83 50 -20 0 -44 -15 -83 -50z m128 -170 c29 -23 48
-30 81 -30 l44 0 0 -43 c0 -32 8 -53 31 -86 l32 -42 -32 -39 c-24 -31 -31 -48
-31 -84 l0 -46 -48 0 c-37 0 -54 -5 -68 -21 -38 -42 -53 -43 -94 -10 -31 24
-48 31 -84 31 l-46 0 0 43 c0 32 -8 53 -31 85 l-31 42 31 42 c23 32 31 53 31
85 l0 43 43 0 c33 0 53 7 83 30 21 16 42 30 45 30 3 0 23 -13 44 -30z m1092
-720 c25 -23 44 -30 73 -30 40 0 40 0 40 -40 0 -30 7 -48 31 -75 l31 -35 -31
-35 c-24 -27 -31 -45 -31 -75 0 -40 0 -40 -40 -40 -30 0 -48 -7 -75 -31 l-35
-31 -35 31 c-27 24 -45 31 -75 31 -40 0 -40 0 -40 40 0 30 -7 48 -31 75 l-31
35 31 35 c24 27 31 45 31 75 0 40 0 40 40 40 30 0 48 7 72 30 18 16 35 30 37
30 2 0 19 -13 38 -30z m-460 -1470 c25 -23 44 -30 73 -30 40 0 40 0 40 -40 0
-30 7 -48 31 -75 l31 -35 -31 -35 c-24 -27 -31 -45 -31 -75 0 -40 0 -40 -40
-40 -30 0 -48 -7 -75 -31 l-35 -31 -35 31 c-27 24 -45 31 -75 31 -40 0 -40 0
-40 40 0 30 -7 48 -31 75 l-31 35 31 35 c24 27 31 45 31 75 0 40 0 40 40 40
30 0 48 7 72 30 18 16 35 30 37 30 2 0 19 -13 38 -30z m-1192 -160 c3 -5 15
-10 26 -10 11 0 22 -8 25 -17 3 -10 11 -28 17 -41 8 -17 8 -28 -1 -42 -7 -11
-12 -27 -12 -35 0 -9 -8 -18 -17 -21 -10 -3 -28 -11 -40 -17 -17 -7 -29 -7
-45 0 -13 6 -31 14 -40 17 -10 3 -18 12 -18 21 0 8 -5 24 -12 35 -9 14 -9 25
-1 42 6 13 14 31 17 41 3 9 14 17 25 17 11 0 23 5 26 10 3 6 15 10 25 10 10 0
22 -4 25 -10z"/>
<path d="M706 4559 c-17 -13 -28 -34 -32 -60 -6 -36 -9 -39 -40 -39 -23 0 -38
-7 -53 -26 -41 -52 -17 -110 49 -120 36 -6 39 -9 45 -45 16 -95 145 -91 145 5
0 32 2 34 42 39 72 10 99 67 58 120 -14 18 -32 27 -58 29 -35 3 -37 5 -40 40
-2 26 -11 44 -29 58 -33 25 -54 25 -87 -1z"/>
<path d="M2347 4116 c-20 -16 -37 -66 -37 -113 l0 -33 -55 0 c-62 0 -95 -24
-95 -69 1 -49 46 -81 116 -81 30 0 34 -3 34 -28 0 -73 32 -121 80 -121 48 0
80 48 80 121 0 25 4 28 34 28 70 0 115 32 116 81 0 45 -33 69 -95 69 l-55 0 0
33 c0 78 -31 126 -80 126 -14 0 -33 -6 -43 -13z"/>
<path d="M1252 3090 c-14 -13 -24 -38 -28 -70 l-7 -50 -43 0 c-95 0 -117 -106
-30 -140 15 -5 38 -10 51 -10 19 0 24 -7 30 -45 7 -52 36 -85 75 -85 39 0 68
33 75 85 6 38 11 45 30 45 13 0 36 5 51 10 87 34 65 140 -30 140 l-43 0 -7 50
c-8 57 -35 90 -76 90 -14 0 -36 -9 -48 -20z"/>
<path d="M2404 1970 c-87 -75 -123 -80 -187 -25 -52 44 -82 45 -133 2 -30 -26
-52 -35 -93 -40 -71 -8 -91 -28 -98 -98 -4 -42 -13 -62 -39 -93 l-34 -39 -287
-43 c-159 -24 -300 -44 -315 -44 -28 0 -28 0 -28 70 0 62 -3 74 -25 95 -21 22
-33 25 -91 25 -66 0 -67 0 -121 50 -39 35 -63 50 -83 50 -20 0 -44 -15 -83
-50 -54 -50 -55 -50 -121 -50 -58 0 -70 -3 -91 -25 -22 -21 -25 -33 -25 -91 0
-66 0 -67 -50 -121 -66 -72 -66 -94 0 -166 47 -52 50 -58 50 -110 0 -70 14
-102 51 -118 16 -6 29 -13 29 -14 0 -5 -232 -490 -236 -495 -3 -2 -14 1 -24 8
-33 20 -64 14 -106 -21 -30 -26 -52 -35 -93 -40 -70 -8 -90 -28 -98 -98 -5
-41 -14 -63 -40 -93 -42 -51 -42 -81 0 -132 26 -30 35 -52 40 -93 8 -70 28
-90 98 -98 41 -5 63 -14 93 -40 51 -42 81 -42 132 0 30 26 52 35 93 40 70 8
90 28 98 98 5 41 14 63 40 93 19 23 33 51 33 66 0 15 -14 43 -33 66 -26 30
-35 52 -40 93 -4 35 -14 62 -28 77 l-22 24 118 247 c65 137 119 250 121 252 1
1 18 -9 37 -23 50 -38 77 -34 140 24 54 50 55 50 121 50 58 0 70 3 91 25 22
21 25 33 25 91 0 65 1 68 43 113 24 25 48 53 53 62 7 12 74 26 289 58 154 23
287 41 296 41 12 0 18 -13 23 -49 8 -61 29 -80 97 -88 41 -5 63 -14 93 -40 51
-42 81 -42 132 0 30 26 52 35 93 40 70 8 90 28 98 98 5 41 14 63 40 93 43 51
42 81 -2 133 -19 23 -35 45 -35 51 0 5 33 37 73 72 104 90 117 121 72 165 -40
41 -72 33 -151 -35z m-237 -191 c7 -7 29 -15 50 -18 34 -6 38 -10 44 -43 3
-20 11 -44 19 -52 10 -13 10 -19 0 -32 -8 -8 -16 -32 -19 -52 -6 -33 -10 -37
-43 -43 -20 -3 -44 -11 -52 -19 -13 -10 -19 -10 -32 0 -8 8 -32 16 -52 19 -33
6 -37 10 -43 43 -3 20 -11 44 -19 52 -10 13 -10 19 0 32 8 8 16 32 19 52 6 33
10 37 44 43 21 3 43 11 50 18 6 6 14 11 17 11 3 0 11 -5 17 -11z m-1253 -119
c30 -23 50 -30 83 -30 l43 0 0 -43 c0 -32 8 -53 31 -86 l32 -42 -32 -39 c-24
-31 -31 -48 -31 -84 l0 -46 -48 0 c-37 0 -54 -5 -68 -21 -38 -42 -53 -43 -94
-10 -31 24 -48 31 -84 31 l-46 0 0 43 c0 32 -8 53 -31 85 l-31 42 31 42 c23
32 31 53 31 85 l0 43 43 0 c33 0 53 7 83 30 21 16 41 29 44 29 3 0 23 -13 44
-29z m-567 -1201 c7 -7 29 -15 50 -18 34 -6 38 -10 44 -43 3 -20 11 -44 19
-52 10 -13 10 -19 0 -32 -8 -8 -16 -32 -19 -52 -6 -33 -10 -37 -43 -43 -20 -3
-44 -11 -52 -19 -13 -10 -19 -10 -32 0 -8 8 -32 16 -52 19 -33 6 -37 10 -43
43 -3 20 -11 44 -19 52 -10 13 -10 19 0 32 8 8 16 32 19 52 6 33 10 37 44 43
21 3 43 11 50 18 6 6 14 11 17 11 3 0 11 -5 17 -11z"/>
<path d="M3607 1618 c-22 -17 -37 -61 -37 -109 l0 -39 -55 0 c-63 0 -95 -22
-95 -66 0 -54 41 -84 116 -84 32 0 34 -2 34 -34 0 -70 32 -115 81 -116 42 0
69 38 69 98 l0 52 38 1 c20 1 48 4 61 8 34 9 65 54 57 83 -12 45 -23 53 -88
58 l-63 5 -5 62 c-4 47 -10 66 -25 77 -25 19 -66 20 -88 4z"/>
<path d="M1906 759 c-17 -13 -28 -34 -32 -60 -6 -36 -9 -39 -40 -39 -23 0 -38
-7 -53 -26 -41 -52 -17 -110 49 -120 36 -6 39 -9 45 -45 16 -95 145 -91 145 5
0 32 2 34 42 39 72 10 99 67 58 120 -14 18 -32 27 -58 29 -35 3 -37 5 -40 40
-2 26 -11 44 -29 58 -33 25 -54 25 -87 -1z"/>
</g>
</svg>
