<?xml version="1.0" standalone="no"?>
<!DOCTYPE svg PUBLIC "-//W3C//DTD SVG 20010904//EN"
 "http://www.w3.org/TR/2001/REC-SVG-20010904/DTD/svg10.dtd">
<svg version="1.0" xmlns="http://www.w3.org/2000/svg"
 width="512.000000pt" height="512.000000pt" viewBox="0 0 512.000000 512.000000"
 preserveAspectRatio="xMidYMid meet">

<g transform="translate(0.000000,512.000000) scale(0.100000,-0.100000)"
fill="#413B3B" stroke="none">
<path d="M4100 4754 c-224 -22 -488 -70 -681 -124 -267 -76 -692 -236 -703
-266 -8 -22 11 -54 32 -54 10 0 75 25 145 55 407 176 971 305 1339 305 209 0
348 -40 401 -114 34 -47 30 -152 -7 -229 -67 -139 -271 -364 -526 -580 l-125
-106 -25 23 c-103 94 -243 128 -384 91 -106 -28 -202 -104 -255 -202 -22 -41
-46 -62 -168 -143 -126 -84 -318 -198 -365 -215 -18 -7 -23 11 -31 113 -4 53
-4 54 37 80 309 195 416 299 416 401 0 62 -33 92 -118 106 -34 5 -54 18 -90
55 -37 37 -57 49 -90 55 -117 19 -212 -59 -212 -173 0 -105 70 -175 175 -175
81 0 155 53 170 123 6 26 11 30 41 30 21 0 37 -6 40 -14 18 -48 -130 -189
-318 -304 l-66 -41 -15 67 c-43 187 -134 288 -254 280 l-48 -3 -5 -382 c-3
-229 -9 -386 -15 -392 -16 -14 -235 -88 -359 -121 -320 -84 -578 -86 -675 -4
-24 20 -34 23 -49 15 -51 -27 -26 -74 62 -115 173 -81 462 -54 860 78 75 26
139 46 142 46 4 0 4 -28 0 -62 -14 -130 -8 -121 -99 -158 -89 -35 -108 -50
-100 -80 8 -31 38 -33 103 -7 33 14 60 21 60 16 0 -5 -8 -53 -17 -107 -28
-161 -23 -501 13 -857 25 -253 29 -329 28 -600 0 -285 -15 -516 -40 -642 -10
-52 47 -87 65 -40 20 53 43 320 48 572 6 297 -4 489 -42 840 -31 279 -33 489
-5 693 11 81 24 156 29 167 5 13 42 34 100 59 50 21 94 42 97 48 9 15 -4 55
-21 62 -9 3 -46 -8 -82 -24 -36 -17 -69 -30 -73 -30 -6 0 15 179 22 184 19 16
221 97 226 91 4 -3 7 -154 7 -333 0 -180 4 -333 8 -339 12 -18 52 -16 68 4 58
70 323 223 388 223 31 0 34 -4 76 -92 126 -269 141 -480 41 -577 -56 -54 -67
-41 -64 76 l3 99 -57 117 c-43 88 -62 117 -76 117 -40 0 -138 -93 -187 -177
-11 -18 -22 -33 -25 -33 -3 0 -16 21 -30 48 -31 59 -63 65 -68 13 -10 -101
164 -308 316 -379 107 -49 184 -29 247 63 67 97 76 156 64 400 -5 95 14 142
70 181 58 39 67 34 80 -43 7 -38 29 -126 51 -198 66 -223 64 -202 34 -297
-106 -335 -199 -505 -437 -797 -147 -181 -172 -256 -171 -512 1 -195 8 -222
52 -217 l27 3 -3 181 c-6 276 4 303 200 554 66 85 139 182 161 215 81 118 193
369 248 554 28 93 23 134 -34 321 -24 80 -50 176 -57 213 -16 87 -41 119 -93
119 -44 0 -114 -38 -151 -83 l-26 -30 -11 28 c-6 15 -20 53 -31 83 -28 75 -84
130 -131 130 -61 0 -255 -91 -354 -167 -25 -19 -47 -32 -50 -29 -3 2 -7 139
-10 304 l-6 299 69 38 c140 76 281 159 351 207 40 26 74 48 77 48 3 0 8 -21
11 -47 4 -27 13 -67 20 -90 l14 -43 -67 -38 c-37 -22 -91 -52 -119 -67 -54
-29 -68 -56 -41 -83 20 -20 36 -15 153 51 l112 64 52 -53 c197 -200 530 -137
658 124 25 51 28 67 28 162 0 92 -3 112 -26 161 l-26 56 86 65 c211 161 405
358 511 519 196 298 145 505 -141 574 -64 15 -294 27 -379 19z m-1546 -1067
c43 -43 74 -114 91 -207 4 -19 8 -42 11 -51 3 -11 -12 -24 -46 -43 -39 -21
-50 -33 -48 -48 5 -33 32 -45 70 -30 17 6 34 10 36 7 2 -2 6 -41 9 -87 l6 -84
-94 -43 c-52 -24 -98 -45 -104 -47 -7 -3 -10 113 -10 336 0 387 -2 378 79 297z
m581 -1584 c11 -33 13 -58 6 -106 -5 -35 -7 -75 -4 -90 3 -15 1 -27 -4 -27
-15 0 -126 69 -155 97 -59 56 -49 129 29 213 l56 61 29 -53 c16 -29 35 -72 43
-95z"/>
<path d="M3906 4467 c-38 -27 2 -95 42 -71 24 16 28 55 6 71 -10 7 -21 13 -24
13 -3 0 -14 -6 -24 -13z"/>
<path d="M1531 4311 c-25 -25 -17 -59 15 -67 46 -12 72 37 38 70 -20 21 -30
20 -53 -3z"/>
<path d="M2482 4268 c-30 -30 -1 -75 43 -64 22 6 26 11 23 39 -2 26 -8 33 -28
35 -14 2 -31 -3 -38 -10z"/>
<path d="M3219 4245 c-255 -40 -571 -153 -928 -331 -113 -56 -266 -139 -340
-183 -141 -85 -322 -213 -356 -251 -33 -37 -50 -41 -91 -24 -26 11 -59 15
-105 12 -159 -9 -261 -151 -219 -308 15 -58 97 -140 156 -158 95 -28 170 -9
240 62 77 76 96 179 52 272 l-21 46 29 24 c265 223 628 431 1016 585 318 125
551 178 779 179 143 0 205 -16 248 -65 36 -41 40 -85 14 -150 -8 -22 -16 -53
-17 -70 -1 -27 2 -30 29 -30 25 0 34 7 53 43 25 45 39 141 28 186 -17 69 -129
144 -246 166 -71 13 -216 11 -321 -5z"/>
<path d="M2055 4072 c-491 -253 -911 -525 -1230 -795 l-100 -85 -12 35 c-7 19
-17 94 -23 167 -11 138 -20 159 -61 149 -27 -7 -26 -5 -39 -163 -17 -204 -48
-250 -180 -268 -58 -8 -79 -21 -80 -49 0 -20 42 -43 78 -43 39 0 102 -24 102
-40 0 -5 -19 -34 -43 -63 -96 -117 -154 -240 -164 -341 -22 -238 197 -355 607
-326 226 16 524 76 793 160 130 40 127 38 127 70 0 43 -27 45 -137 10 -466
-149 -992 -202 -1183 -119 -163 71 -168 208 -17 437 44 67 63 88 69 78 5 -8
15 -77 24 -153 11 -102 20 -141 32 -150 9 -7 19 -13 22 -13 27 0 39 32 50 125
16 146 29 205 56 251 26 46 74 74 126 74 41 0 78 24 78 50 0 25 -22 36 -89 43
-30 4 -58 10 -63 15 -14 14 159 160 372 314 265 191 576 379 965 580 94 49
161 90 163 99 3 18 -23 49 -41 49 -7 0 -97 -45 -202 -98z m-1400 -921 c3 -11
23 -35 44 -54 l39 -35 -28 -27 c-15 -14 -36 -44 -45 -66 -21 -45 -30 -49 -39
-16 -3 12 -22 42 -42 65 l-36 43 41 44 c23 25 41 49 41 55 0 18 18 11 25 -9z"/>
<path d="M4922 4108 c-34 -34 6 -90 48 -68 35 19 20 80 -20 80 -9 0 -21 -5
-28 -12z"/>
<path d="M2230 3600 c-24 -44 38 -83 70 -45 10 12 10 21 2 40 -14 31 -56 34
-72 5z"/>
<path d="M2054 3484 c-27 -21 -73 -60 -103 -88 -132 -126 -148 -221 -44 -275
46 -23 271 -1 310 30 17 15 17 44 -2 59 -12 10 -31 9 -95 -4 -129 -26 -200
-21 -200 14 0 30 72 112 153 174 81 62 97 94 58 116 -26 13 -22 15 -77 -26z"/>
<path d="M4426 3164 c-21 -20 -20 -30 4 -54 17 -17 24 -18 41 -10 27 15 33 34
19 59 -13 25 -42 27 -64 5z"/>
<path d="M143 3094 c-15 -6 -17 -42 -4 -62 11 -18 51 -11 65 11 20 32 -22 67
-61 51z"/>
<path d="M2900 2972 c-17 -13 -21 -24 -16 -40 10 -31 55 -41 73 -16 17 24 13
43 -13 61 -19 12 -24 11 -44 -5z"/>
<path d="M4420 2804 c-6 -14 -10 -45 -10 -69 0 -64 -19 -244 -31 -288 -12 -44
-67 -110 -107 -126 -15 -6 -61 -17 -102 -24 -70 -11 -75 -14 -78 -39 -4 -33
14 -43 85 -51 100 -11 152 -55 188 -158 9 -24 24 -116 34 -205 11 -90 22 -167
26 -173 9 -15 50 -14 62 2 5 6 17 80 27 164 9 84 23 174 31 201 31 103 90 157
183 167 79 9 90 13 97 36 10 30 -11 47 -68 54 -73 9 -117 24 -155 52 -64 48
-81 112 -97 353 -4 58 -12 111 -17 118 -18 22 -58 14 -68 -14z m69 -449 c17
-30 47 -65 66 -77 40 -26 42 -33 15 -48 -26 -14 -73 -84 -95 -143 l-18 -49
-17 46 c-24 62 -56 110 -93 142 -22 18 -28 29 -19 32 28 9 80 63 103 107 13
25 25 45 26 45 0 0 15 -25 32 -55z"/>
<path d="M1986 2584 c-9 -8 -16 -22 -16 -29 0 -17 27 -45 44 -45 19 0 36 22
36 45 0 41 -36 58 -64 29z"/>
<path d="M1422 1838 c-27 -27 -6 -68 35 -68 28 0 43 28 32 58 -9 24 -47 30
-67 10z"/>
</g>
</svg>
