<?xml version="1.0" standalone="no"?>
<!DOCTYPE svg PUBLIC "-//W3C//DTD SVG 20010904//EN"
 "http://www.w3.org/TR/2001/REC-SVG-20010904/DTD/svg10.dtd">
<svg version="1.0" xmlns="http://www.w3.org/2000/svg"
 width="512.000000pt" height="512.000000pt" viewBox="0 0 512.000000 512.000000"
 preserveAspectRatio="xMidYMid meet">

<g transform="translate(0.000000,512.000000) scale(0.100000,-0.100000)"
fill="#413B3B" stroke="none">
<path d="M3150 4839 c-37 -15 -78 -58 -89 -93 -9 -28 -31 -235 -31 -296 0 -22
-8 -28 -72 -49 -40 -13 -108 -40 -150 -62 l-77 -38 -111 94 c-126 108 -154
125 -205 125 -61 0 -95 -24 -232 -163 -197 -199 -199 -220 -37 -412 l105 -125
-28 -52 c-15 -29 -43 -96 -63 -148 l-36 -95 -145 -12 c-173 -14 -179 -16 -220
-50 -53 -45 -59 -72 -59 -277 0 -191 5 -224 43 -264 39 -42 71 -51 229 -63
l155 -12 18 -56 c9 -31 37 -98 61 -149 l43 -93 -104 -124 c-160 -190 -158
-214 34 -408 210 -214 236 -217 439 -44 l113 97 77 -39 c42 -21 109 -49 149
-61 l71 -23 7 -101 c14 -216 25 -253 89 -300 25 -19 44 -21 214 -24 215 -4
240 -1 282 35 51 42 60 73 73 234 l12 151 78 28 c42 16 110 44 149 63 l72 35
122 -104 c192 -161 211 -160 408 34 142 140 166 175 166 237 0 51 -18 81 -120
200 -50 57 -90 109 -90 115 0 6 10 30 22 53 11 23 38 87 59 142 l38 100 143
12 c173 15 178 16 218 49 57 48 60 64 60 280 0 182 -2 199 -22 235 -35 62 -79
78 -252 92 l-149 12 -22 65 c-12 36 -38 101 -59 144 -20 43 -36 83 -36 88 0 5
38 53 84 107 46 54 94 113 105 132 24 39 27 96 7 142 -18 41 -272 293 -309
307 -77 28 -121 9 -262 -113 l-110 -95 -50 26 c-27 14 -95 42 -150 63 l-100
38 -11 138 c-14 171 -18 192 -51 227 -46 50 -75 56 -280 55 -103 0 -199 -5
-213 -10z m384 -161 c3 -13 10 -88 16 -168 14 -194 14 -194 160 -246 63 -22
154 -60 202 -83 67 -33 93 -41 116 -36 16 3 68 39 116 80 47 40 106 90 132
111 l45 37 115 -114 c63 -62 114 -117 114 -120 0 -4 -47 -62 -105 -130 -58
-68 -110 -139 -116 -157 -10 -30 -6 -43 49 -160 33 -70 69 -159 81 -199 30
-102 45 -110 207 -123 71 -6 148 -13 172 -16 l42 -5 0 -164 0 -164 -42 -5
c-24 -3 -101 -10 -173 -16 -165 -13 -170 -16 -212 -141 -18 -52 -55 -142 -84
-201 -47 -98 -50 -109 -40 -140 6 -18 58 -89 116 -156 58 -68 105 -127 105
-131 0 -3 -52 -58 -115 -121 -106 -106 -115 -113 -132 -98 -189 162 -249 208
-278 214 -26 4 -50 -3 -123 -40 -50 -25 -137 -61 -194 -81 -56 -19 -110 -42
-120 -53 -22 -21 -33 -86 -43 -237 -3 -60 -9 -118 -11 -127 -5 -16 -22 -18
-168 -18 l-163 0 -6 48 c-4 26 -9 92 -13 147 -11 182 -21 197 -156 239 -48 14
-131 49 -185 76 -54 27 -106 50 -116 50 -32 0 -73 -28 -192 -130 -64 -55 -119
-100 -123 -100 -4 0 -59 51 -121 114 -104 104 -113 116 -100 132 8 10 58 69
111 133 64 74 100 126 104 147 5 26 -5 54 -49 146 -30 62 -65 147 -77 188 -22
75 -39 103 -73 122 -13 7 -253 33 -354 38 -2 0 -3 74 -3 164 l0 165 43 5 c23
3 100 10 170 16 71 5 136 14 145 19 33 18 50 47 72 121 12 41 47 126 77 188
45 93 54 120 49 147 -6 29 -51 88 -214 278 -15 17 -8 26 98 132 63 63 118 115
121 115 4 0 63 -47 131 -105 73 -63 138 -110 160 -117 35 -10 43 -8 127 35 49
26 131 61 183 78 105 35 132 50 149 80 8 16 36 270 39 352 0 4 74 7 165 7 163
0 165 0 169 -22z"/>
<path d="M3260 4069 c-86 -10 -220 -49 -267 -78 -56 -35 -54 -107 3 -133 21
-10 34 -8 72 7 108 42 185 57 297 57 212 0 369 -65 520 -217 151 -150 219
-311 219 -520 0 -208 -68 -370 -219 -521 -76 -76 -105 -97 -185 -137 -120 -59
-206 -79 -340 -78 -197 0 -369 72 -511 211 -87 86 -146 180 -185 295 -39 113
-45 286 -16 403 26 101 68 190 127 271 50 68 57 109 25 141 -33 33 -77 26
-119 -19 -77 -84 -159 -253 -185 -383 -20 -99 -20 -267 0 -366 30 -151 109
-301 218 -419 287 -309 740 -375 1108 -162 101 58 251 210 312 314 163 279
161 629 -3 904 -180 302 -522 471 -871 430z"/>
<path d="M3261 3526 c-141 -46 -251 -196 -251 -341 0 -101 63 -225 143 -283
72 -51 122 -67 217 -67 71 0 94 4 141 26 79 37 133 90 171 167 30 60 33 75 33
157 0 76 -4 98 -26 146 -59 126 -169 200 -307 206 -48 2 -93 -3 -121 -11z
m221 -172 c138 -97 108 -308 -51 -362 -160 -55 -320 111 -255 266 51 122 202
170 306 96z"/>
<path d="M854 3121 c-64 -29 -85 -67 -100 -184 -8 -56 -14 -107 -14 -113 0 -6
-28 -28 -62 -48 l-62 -37 -86 37 c-118 51 -142 57 -190 44 -59 -16 -81 -41
-167 -190 -72 -125 -78 -139 -78 -192 0 -72 16 -94 123 -173 l81 -60 1 -76 0
-76 -88 -65 c-153 -112 -157 -151 -42 -355 84 -149 119 -188 175 -199 48 -9
86 0 185 44 l84 38 54 -32 c30 -18 58 -34 62 -36 5 -2 14 -48 20 -103 7 -55
18 -114 25 -130 14 -35 66 -82 99 -91 13 -3 101 -4 197 -2 161 3 176 5 205 25
45 32 61 74 75 196 6 59 15 107 18 107 4 0 32 15 62 33 l55 33 100 -43 c105
-45 156 -53 202 -29 42 22 64 51 143 186 62 106 73 133 76 180 5 74 -15 105
-122 182 l-85 62 0 73 0 73 84 62 c96 71 126 114 126 180 0 36 -12 66 -71 169
-92 159 -104 176 -142 196 -53 27 -112 21 -215 -25 l-92 -42 -64 35 -63 35
-12 107 c-16 141 -34 175 -114 208 -57 24 -328 21 -383 -4z m340 -163 c3 -18
10 -75 16 -127 6 -51 15 -102 21 -113 6 -11 31 -28 57 -39 25 -11 72 -38 104
-60 32 -21 69 -39 82 -39 14 0 75 22 138 49 62 28 113 49 114 48 9 -10 134
-232 134 -238 0 -4 -44 -40 -97 -79 -54 -40 -102 -79 -107 -88 -7 -12 -12
-185 -7 -275 1 -10 45 -50 104 -93 56 -42 103 -80 105 -85 4 -11 -127 -239
-137 -239 -4 0 -54 21 -112 47 -57 26 -117 47 -134 47 -18 -1 -52 -16 -85 -39
-30 -20 -73 -45 -95 -55 -63 -27 -73 -45 -85 -150 -6 -52 -13 -110 -16 -127
l-5 -33 -138 0 -139 0 -5 33 c-3 17 -9 64 -12 102 -12 132 -17 141 -96 181
-39 19 -89 48 -111 65 -23 16 -48 29 -57 29 -9 0 -68 -23 -130 -50 -63 -28
-118 -50 -122 -50 -7 0 -139 228 -139 239 0 3 41 35 90 70 131 93 124 80 125
234 1 73 -1 138 -3 145 -2 7 -51 47 -108 89 -57 41 -104 78 -104 81 0 7 99
181 122 214 l19 27 110 -50 c61 -27 122 -49 136 -49 13 0 44 14 69 31 24 16
70 43 102 59 32 16 64 35 71 43 9 11 40 217 41 270 0 4 63 7 140 7 l139 0 5
-32z"/>
<path d="M922 2491 c-110 -41 -206 -140 -237 -246 -8 -26 -15 -83 -15 -125 0
-95 20 -130 76 -130 57 0 74 27 74 115 0 87 16 134 63 184 129 136 358 69 398
-118 21 -97 -32 -205 -125 -254 -32 -17 -59 -21 -122 -22 -96 0 -124 -16 -124
-71 0 -65 88 -97 204 -76 164 31 286 154 316 320 29 161 -61 332 -215 407 -79
39 -211 46 -293 16z"/>
<path d="M119 950 c-48 -25 -96 -81 -108 -127 -15 -54 -14 -356 1 -407 16 -53
81 -118 134 -134 32 -9 496 -12 2081 -12 2038 0 2039 0 2061 20 30 28 30 82 0
110 -21 20 -32 20 -545 20 l-523 0 0 200 0 200 859 0 860 0 15 -22 c13 -18 16
-54 16 -180 0 -212 16 -198 -224 -198 -165 0 -186 -2 -207 -19 -32 -26 -32
-86 0 -112 21 -17 42 -19 208 -19 118 0 201 4 227 12 53 16 118 81 134 134 15
51 16 353 1 407 -13 47 -60 102 -110 128 -38 19 -82 19 -2441 19 -2342 -1
-2404 -1 -2439 -20z m315 -237 c-31 -60 -79 -150 -106 -200 l-49 -93 -45 0
c-31 0 -50 6 -64 20 -18 18 -20 33 -20 178 0 215 -12 202 186 202 l156 0 -58
-107z m560 0 c-31 -60 -79 -150 -106 -201 l-49 -92 -195 0 -196 0 58 108 c31
59 79 149 106 200 l49 92 195 0 196 0 -58 -107z m560 0 c-31 -60 -79 -150
-106 -201 l-49 -92 -195 0 -196 0 58 108 c31 59 79 149 106 200 l49 92 195 0
196 0 -58 -107z m550 -20 c-36 -71 -84 -161 -106 -200 l-39 -73 -195 0 -196 0
58 108 c31 59 79 149 106 200 l50 92 195 0 195 0 -68 -127z m560 0 c-36 -71
-84 -161 -106 -200 l-39 -73 -195 0 -195 0 49 93 c27 50 75 140 106 200 l58
107 195 0 195 0 -68 -127z m406 -73 l0 -200 -191 0 -190 0 49 93 c27 50 75
140 106 200 l58 107 84 0 84 0 0 -200z"/>
</g>
</svg>
