<?xml version="1.0" standalone="no"?>
<!DOCTYPE svg PUBLIC "-//W3C//DTD SVG 20010904//EN"
 "http://www.w3.org/TR/2001/REC-SVG-20010904/DTD/svg10.dtd">
<svg version="1.0" xmlns="http://www.w3.org/2000/svg"
 width="512.000000pt" height="512.000000pt" viewBox="0 0 512.000000 512.000000"
 preserveAspectRatio="xMidYMid meet">

<g transform="translate(0.000000,512.000000) scale(0.100000,-0.100000)"
fill="#413B3B" stroke="none">
<path d="M3770 5064 c-153 -9 -387 -37 -418 -49 -64 -27 -75 -114 -20 -160 35
-30 31 -29 200 -8 165 21 642 24 793 5 187 -24 349 -52 497 -88 130 -31 153
-34 179 -24 39 16 59 46 59 88 0 41 -23 77 -58 91 -90 36 -434 103 -644 125
-147 16 -472 27 -588 20z"/>
<path d="M2185 4642 c-171 -88 -347 -195 -492 -298 -119 -85 -133 -101 -133
-149 0 -50 20 -80 64 -95 42 -14 70 -3 145 54 135 104 376 250 564 342 61 30
122 66 135 80 32 37 30 88 -7 125 -49 48 -81 41 -276 -59z"/>
<path d="M2990 4240 c-129 -23 -252 -101 -319 -201 -60 -90 -83 -159 -88 -269
l-5 -95 -112 -67 c-252 -150 -549 -409 -733 -638 -233 -290 -419 -646 -518
-990 -34 -117 -76 -310 -90 -411 -6 -45 -8 -47 -43 -53 -107 -17 -261 -136
-316 -244 -99 -195 -65 -419 85 -572 65 -67 154 -114 249 -133 l65 -14 13 -49
c23 -88 102 -332 122 -379 25 -58 72 -82 126 -65 72 24 80 75 33 202 -34 93
-89 283 -89 308 0 10 20 26 52 41 79 36 171 131 213 220 118 249 18 532 -230
650 -33 16 -66 29 -72 29 -16 0 -16 7 1 105 78 442 273 874 554 1225 178 223
437 451 680 598 l83 51 67 -67 c104 -105 214 -152 352 -152 258 1 459 191 486
462 7 79 -6 72 189 89 342 29 701 -16 1049 -132 82 -27 162 -49 178 -49 70 0
113 96 68 153 -49 62 -437 173 -749 214 -168 21 -524 21 -676 0 l-110 -16 -20
26 c-79 105 -160 168 -261 202 -71 23 -172 33 -234 21z m200 -220 c219 -110
224 -411 9 -519 -143 -71 -305 -23 -386 117 -21 35 -27 62 -31 123 -4 74 -2
84 27 144 36 73 88 120 165 147 66 24 155 19 216 -12z m-1874 -2714 c106 -49
168 -145 168 -261 1 -117 -54 -208 -159 -263 -41 -22 -64 -27 -126 -27 -98 0
-175 36 -230 109 -45 59 -59 104 -59 187 0 111 67 211 174 260 61 28 166 26
232 -5z"/>
<path d="M3784 2979 c-624 -56 -1195 -452 -1466 -1017 -209 -436 -235 -949
-72 -1402 57 -159 201 -417 269 -480 60 -56 160 -14 159 67 0 30 -13 58 -63
132 -114 168 -196 362 -243 573 -20 91 -23 129 -23 328 1 211 2 232 29 344 49
212 120 376 238 553 94 143 292 341 433 435 553 369 1262 368 1812 -3 88 -60
129 -65 174 -20 35 36 39 86 9 124 -54 68 -331 218 -520 281 -237 79 -485 108
-736 85z"/>
<path d="M433 2798 c-53 -26 -194 -407 -272 -738 -74 -311 -96 -520 -96 -890
0 -381 27 -610 111 -942 32 -127 40 -144 81 -163 49 -23 101 -4 125 46 17 34
17 39 -1 110 -83 314 -112 528 -118 869 -7 369 12 571 83 894 41 183 112 410
184 585 59 143 61 171 21 212 -32 31 -76 37 -118 17z"/>
<path d="M3904 2243 c-8 -10 -37 -50 -64 -89 -125 -183 -353 -263 -566 -199
-91 27 -128 -15 -100 -113 19 -71 21 -198 2 -268 -33 -126 -130 -252 -240
-314 -101 -57 -99 -112 6 -171 108 -61 209 -197 238 -321 15 -65 12 -185 -6
-249 -31 -111 1 -143 115 -116 229 56 437 -27 570 -227 25 -38 54 -74 63 -80
32 -19 69 5 107 69 114 196 347 294 567 239 78 -19 102 -16 126 17 18 24 19
29 5 85 -24 97 -28 139 -17 216 20 142 123 299 240 366 68 38 80 52 80 88 0
37 -16 56 -69 83 -99 51 -196 173 -233 296 -27 86 -29 206 -5 287 31 104 -8
137 -127 106 -121 -31 -223 -21 -344 37 -83 39 -185 133 -220 202 -12 22 -29
48 -37 57 -22 21 -71 20 -91 -1z m199 -433 c127 -32 201 -74 298 -170 91 -90
123 -140 165 -254 36 -96 44 -242 19 -350 -49 -222 -217 -407 -435 -480 -74
-25 -100 -29 -200 -29 -97 0 -127 4 -195 26 -113 37 -196 90 -280 178 -194
203 -234 493 -105 750 132 260 448 402 733 329z"/>
<path d="M3845 1616 c-74 -18 -142 -55 -202 -110 -208 -189 -187 -530 43 -695
84 -60 172 -84 288 -79 83 3 102 8 168 41 125 61 209 162 243 292 84 323 -216
630 -540 551z"/>
</g>
</svg>
