<?xml version="1.0" standalone="no"?>
<!DOCTYPE svg PUBLIC "-//W3C//DTD SVG 20010904//EN"
 "http://www.w3.org/TR/2001/REC-SVG-20010904/DTD/svg10.dtd">
<svg version="1.0" xmlns="http://www.w3.org/2000/svg"
 width="512.000000pt" height="512.000000pt" viewBox="0 0 512.000000 512.000000"
 preserveAspectRatio="xMidYMid meet">

<g transform="translate(0.000000,512.000000) scale(0.100000,-0.100000)"
fill="#413B3B" stroke="none">
<path d="M2372 4947 c-15 -16 -22 -38 -24 -82 l-3 -60 -55 -3 c-68 -3 -95 -16
-111 -53 -9 -22 -9 -36 0 -58 16 -37 43 -50 111 -53 l55 -3 5 -68 c6 -79 21
-97 81 -97 55 0 79 35 79 111 l0 59 60 0 c51 0 65 4 85 25 33 32 33 78 0 110
-20 21 -34 25 -85 25 l-60 0 0 59 c0 77 -24 111 -79 111 -26 0 -44 -7 -59 -23z"/>
<path d="M745 4895 c-82 -17 -173 -56 -237 -99 -60 -41 -112 -85 -107 -91 7
-6 226 -35 267 -35 20 0 54 -5 75 -11 72 -20 85 -104 22 -145 -23 -15 -37 -16
-147 -5 -109 11 -210 27 -305 47 -32 6 -34 5 -58 -48 -41 -89 -65 -201 -65
-300 0 -105 24 -224 48 -237 58 -30 323 -70 524 -79 147 -7 159 -9 183 -32 42
-39 33 -100 -18 -127 -26 -13 -52 -14 -162 -9 -118 7 -266 23 -384 42 l-44 7
24 -33 c35 -47 151 -135 224 -170 140 -67 308 -87 460 -55 39 8 113 36 165 61
80 39 109 61 181 133 71 72 94 103 132 182 46 93 77 209 77 284 0 30 -3 35
-17 31 -49 -15 -212 -47 -318 -63 -152 -22 -559 -25 -713 -4 -110 14 -145 31
-156 76 -9 35 18 83 51 91 14 4 76 2 137 -4 337 -34 600 -19 903 50 91 21 92
22 86 47 -5 23 -59 150 -67 158 -1 2 -69 -8 -150 -22 -235 -40 -288 -33 -302
42 -5 27 -1 37 22 61 27 25 41 29 163 45 74 10 137 20 140 22 17 18 -129 118
-229 158 -121 47 -278 60 -405 32z"/>
<path d="M4095 4794 c-485 -71 -1016 -299 -1605 -689 -969 -641 -1831 -1563
-2244 -2400 -105 -212 -154 -336 -196 -500 -143 -555 37 -944 480 -1035 177
-37 424 -24 665 34 381 93 886 331 1343 633 78 52 142 98 142 103 0 9 -50 143
-55 149 -2 2 -46 -26 -97 -61 -622 -429 -1264 -695 -1723 -715 -232 -10 -380
33 -494 142 -117 112 -165 271 -143 483 79 779 949 1948 2082 2798 1031 774
2051 1100 2450 784 88 -69 153 -197 166 -323 6 -55 10 -66 33 -80 14 -8 47
-34 73 -56 25 -23 49 -41 52 -41 3 0 6 45 6 101 0 333 -174 566 -486 650 -63
17 -113 22 -249 24 -93 2 -183 1 -200 -1z"/>
<path d="M3444 4106 c-430 -90 -992 -403 -1494 -832 -245 -210 -555 -537 -737
-779 -443 -591 -594 -1123 -397 -1406 60 -87 169 -156 291 -185 91 -21 311
-14 437 15 190 44 465 151 485 189 27 51 -9 122 -62 122 -14 0 -80 -22 -148
-49 -236 -95 -429 -137 -579 -128 -168 11 -256 60 -312 174 -31 64 -33 73 -32
173 4 639 936 1741 1939 2293 312 172 590 263 836 276 l126 6 66 62 66 62 -69
15 c-103 24 -279 20 -416 -8z"/>
<path d="M4262 4070 c-140 -37 -239 -96 -339 -204 -191 -203 -235 -524 -108
-776 128 -252 423 -409 698 -371 274 38 487 215 574 476 24 70 27 96 27 210 0
116 -3 139 -28 210 -78 227 -261 397 -490 455 -102 26 -235 26 -334 0z"/>
<path d="M2955 3460 c-336 -88 -818 -427 -1138 -800 -84 -97 -216 -274 -225
-300 -2 -6 9 -10 25 -10 15 0 54 -6 85 -14 l58 -13 68 91 c359 477 1007 925
1304 904 107 -8 130 -64 87 -204 -96 -312 -502 -767 -940 -1053 -63 -42 -139
-87 -167 -100 -49 -23 -52 -27 -52 -61 0 -21 -5 -61 -10 -90 -6 -29 -8 -56 -5
-59 10 -9 211 99 332 178 445 292 851 741 981 1086 83 218 37 397 -115 449
-63 22 -199 20 -288 -4z"/>
<path d="M389 3141 c-19 -15 -24 -30 -27 -85 l-4 -66 -60 0 c-49 0 -63 -4 -83
-25 -31 -30 -32 -73 -4 -109 18 -23 27 -26 85 -26 l64 0 0 -59 c0 -65 22 -104
64 -115 62 -15 106 39 106 129 l0 45 59 0 c69 0 98 18 107 67 5 27 1 37 -24
63 -26 26 -38 30 -85 30 l-54 0 -6 61 c-4 44 -11 67 -28 85 -28 29 -77 32
-110 5z"/>
<path d="M3766 2834 c-19 -51 -231 -325 -403 -523 -50 -57 -63 -78 -63 -105 0
-43 35 -76 80 -76 29 0 44 10 92 61 114 119 377 453 418 528 6 12 -7 30 -55
73 -49 45 -64 54 -69 42z"/>
<path d="M4167 2568 c-8 -21 -203 -255 -317 -382 -58 -64 -106 -120 -108 -124
-1 -4 17 -18 40 -30 24 -11 56 -29 71 -39 l28 -18 55 60 c138 151 435 515 420
515 -2 0 -40 7 -83 15 -95 18 -100 18 -106 3z"/>
<path d="M4721 2344 c-16 -20 -21 -41 -21 -85 l0 -59 -59 0 c-78 0 -111 -24
-111 -81 0 -54 24 -73 103 -79 l62 -5 3 -55 c3 -69 17 -96 54 -109 33 -12 54
-6 86 22 18 17 22 31 22 84 l0 63 63 0 c77 0 107 23 107 82 0 53 -35 78 -111
78 l-59 0 0 60 c0 51 -4 65 -25 85 -34 35 -86 34 -114 -1z"/>
<path d="M1504 2168 c-54 -18 -126 -80 -156 -135 -39 -69 -47 -148 -24 -228
25 -83 108 -166 191 -190 74 -22 149 -15 221 20 62 30 98 69 132 144 21 46 24
64 20 130 -5 82 -20 120 -70 176 -55 64 -110 88 -202 91 -45 2 -95 -2 -112 -8z"/>
<path d="M3300 1953 c-62 -10 -161 -48 -224 -85 -379 -223 -422 -767 -83
-1050 117 -97 259 -148 412 -148 188 0 322 56 455 189 135 133 190 266 191
453 0 143 -32 252 -110 366 -118 174 -328 284 -535 281 -45 -1 -92 -4 -106 -6z"/>
</g>
</svg>
