<?xml version="1.0" standalone="no"?>
<!DOCTYPE svg PUBLIC "-//W3C//DTD SVG 20010904//EN"
 "http://www.w3.org/TR/2001/REC-SVG-20010904/DTD/svg10.dtd">
<svg version="1.0" xmlns="http://www.w3.org/2000/svg"
 width="512.000000pt" height="512.000000pt" viewBox="0 0 512.000000 512.000000"
 preserveAspectRatio="xMidYMid meet">

<g transform="translate(0.000000,512.000000) scale(0.100000,-0.100000)"
fill="#413B3B" stroke="none">
<path d="M415 5109 c-150 -25 -268 -107 -349 -242 -69 -117 -66 -25 -66 -1744
0 -1694 -3 -1604 58 -1717 36 -67 126 -157 187 -189 121 -61 17 -57 1654 -57
l1496 0 113 -195 c63 -107 118 -195 123 -195 15 0 119 61 119 70 0 4 -52 97
-116 206 -64 110 -125 217 -135 239 -48 104 -1 232 104 287 82 43 202 23 264
-44 30 -32 614 -1034 631 -1083 36 -103 -17 -218 -128 -276 -65 -33 -192 -6
-247 53 -12 12 -81 124 -153 248 -72 124 -133 226 -135 228 -6 6 -125 -62
-125 -71 0 -22 270 -468 308 -509 25 -26 68 -59 96 -73 244 -119 520 38 543
311 9 100 -13 152 -208 486 -98 168 -179 309 -179 312 0 3 191 6 425 6 l425 0
0 1780 0 1780 -2071 2 -2071 3 -18 53 c-61 174 -215 304 -390 332 -73 11 -85
11 -155 -1z m160 -154 c108 -28 193 -104 241 -215 18 -43 19 -83 22 -882 l3
-838 74 0 75 0 0 775 0 775 1990 0 1990 0 0 -1630 0 -1630 -397 0 -398 0 -85
146 c-97 168 -155 229 -248 264 -60 24 -159 31 -223 17 l-36 -7 -62 106 c-33
58 -61 109 -61 114 0 4 25 27 56 51 30 23 84 73 119 111 34 37 67 68 71 68 5
0 106 -58 224 -129 197 -117 215 -130 210 -152 -13 -61 -4 -175 17 -221 46
-101 148 -179 255 -196 149 -22 285 48 356 183 24 44 27 62 27 145 0 107 -16
153 -80 228 -31 36 -113 85 -177 106 -17 5 -18 39 -18 535 l0 531 38 19 c49
25 109 91 134 148 29 66 27 167 -5 237 -65 141 -213 206 -367 160 -71 -21
-159 -107 -183 -178 -36 -105 -15 -221 54 -300 39 -44 126 -96 161 -96 17 0
18 -26 18 -534 l0 -534 -24 -6 c-13 -3 -46 -21 -73 -40 l-50 -34 -214 127
c-128 77 -213 134 -212 142 1 8 20 57 42 109 62 149 84 274 78 450 -4 111 -11
166 -30 233 -13 48 -27 90 -30 93 -6 7 -125 -35 -132 -47 -3 -4 5 -43 17 -86
20 -67 23 -100 22 -238 0 -144 -3 -169 -27 -248 -96 -312 -322 -538 -634 -634
-80 -24 -103 -27 -253 -27 -189 -1 -261 14 -405 84 -355 172 -567 559 -516
945 33 245 154 460 344 610 379 300 913 261 1249 -92 31 -33 74 -87 96 -121
l39 -60 58 32 c32 18 60 37 62 43 7 20 -96 158 -175 237 -43 43 -107 97 -140
121 -115 79 -279 148 -424 176 -90 18 -317 15 -405 -4 -202 -46 -377 -137
-525 -275 -31 -28 -52 -41 -60 -36 -7 4 -93 69 -191 143 -131 99 -176 139
-172 150 4 9 11 40 17 69 20 98 -38 248 -120 309 -76 56 -113 68 -212 68 -85
0 -101 -3 -148 -28 -103 -54 -162 -134 -183 -248 -15 -82 6 -171 57 -246 101
-147 312 -187 459 -87 l38 25 181 -137 c99 -76 183 -139 186 -141 2 -2 -4 -16
-14 -31 -39 -60 -115 -231 -135 -302 -74 -272 -39 -567 93 -805 l36 -63 -150
-101 -150 -102 -76 37 c-65 32 -85 38 -142 38 -83 0 -134 -15 -196 -56 -94
-62 -146 -162 -146 -279 0 -134 74 -250 194 -305 74 -34 174 -38 254 -10 70
24 153 100 189 174 25 50 28 67 26 142 -1 47 -4 98 -5 114 -3 26 7 35 144 127
l146 99 59 -58 c118 -119 276 -214 438 -265 229 -72 503 -62 722 28 35 14 67
25 72 25 9 0 131 -202 131 -218 0 -4 -13 -21 -29 -36 -47 -45 -84 -139 -89
-229 l-5 -77 -1471 2 -1471 3 -49 24 c-66 33 -122 91 -154 160 -72 154 2 343
165 422 63 30 148 38 411 39 l232 0 -2 452 -3 453 -72 3 -73 3 0 -381 0 -380
-157 0 c-277 0 -385 -24 -494 -111 l-39 -31 2 1369 3 1368 26 55 c49 104 128
170 233 196 69 17 92 17 161 -1z m868 -789 c99 -41 142 -172 87 -264 -91 -149
-307 -108 -344 65 -15 69 40 169 109 199 39 17 107 17 148 0z m3035 -540 c97
-50 114 -169 36 -242 -46 -44 -98 -52 -158 -25 -57 25 -86 69 -86 132 0 107
117 182 208 135z m92 -1660 c66 -43 98 -147 69 -223 -13 -34 -55 -80 -91 -99
-32 -17 -115 -18 -155 -3 -85 32 -135 148 -102 236 15 40 57 82 104 105 52 24
124 18 175 -16z m-3108 14 c50 -14 97 -55 119 -105 63 -138 -63 -292 -208
-255 -61 15 -89 35 -118 85 -49 83 -24 199 52 246 60 37 98 44 155 29z"/>
<path d="M3227 4353 c-4 -3 -7 -37 -7 -75 l0 -68 75 0 75 0 0 75 0 75 -68 0
c-38 0 -72 -3 -75 -7z"/>
<path d="M4517 4133 c-4 -3 -7 -37 -7 -75 l0 -68 75 0 75 0 0 75 0 75 -68 0
c-38 0 -72 -3 -75 -7z"/>
<path d="M2745 3581 c-169 -27 -297 -93 -421 -216 -77 -76 -98 -105 -137 -185
-65 -131 -81 -200 -81 -340 0 -135 17 -207 74 -325 72 -148 184 -261 331 -336
222 -111 499 -104 709 18 132 77 265 231 318 368 77 197 66 428 -28 615 -93
184 -264 322 -469 379 -84 23 -222 34 -296 22z m93 -154 c-5 -21 -163 -307
-169 -307 -3 0 -55 37 -114 81 l-108 82 34 28 c49 40 165 95 229 108 30 6 64
13 75 15 40 8 56 6 53 -7z m147 -8 c108 -21 238 -102 320 -201 73 -87 135
-241 135 -337 l0 -29 -187 102 -187 102 -103 189 c-57 103 -103 190 -103 192
0 4 43 -2 125 -18z m-530 -330 c52 -39 95 -74 95 -78 0 -10 -291 -163 -297
-157 -22 22 69 306 98 306 5 0 52 -32 104 -71z m497 -131 c7 -10 53 -40 102
-67 l89 -49 -94 -50 -94 -51 -49 -92 c-57 -106 -51 -107 -119 20 -34 65 -42
73 -110 110 -125 69 -123 61 -18 116 l91 49 51 94 51 95 43 -79 c24 -43 49
-87 57 -96z m-544 -203 l142 -77 -100 -69 c-55 -38 -104 -69 -109 -69 -10 0
-56 102 -69 155 -16 62 -25 148 -16 143 5 -3 73 -40 152 -83z m1028 18 c-7
-63 -39 -171 -59 -196 -11 -14 -23 -9 -109 41 -54 31 -97 59 -98 62 0 6 250
148 264 149 5 1 6 -25 2 -56z m-252 -278 l99 -59 -46 -41 c-86 -79 -265 -152
-348 -143 l-28 3 66 120 c120 220 112 208 136 192 12 -7 67 -40 121 -72z
m-427 -81 c45 -82 82 -153 83 -158 0 -14 -120 1 -189 25 -63 21 -211 112 -211
129 0 13 213 160 225 156 6 -1 47 -70 92 -152z"/>
<path d="M1210 3165 l0 -75 75 0 75 0 0 75 0 75 -75 0 -75 0 0 -75z"/>
<path d="M2267 1583 c-4 -3 -7 -37 -7 -75 l0 -68 75 0 75 0 0 75 0 75 -68 0
c-38 0 -72 -3 -75 -7z"/>
</g>
</svg>
