<?xml version="1.0" standalone="no"?>
<!DOCTYPE svg PUBLIC "-//W3C//DTD SVG 20010904//EN"
 "http://www.w3.org/TR/2001/REC-SVG-20010904/DTD/svg10.dtd">
<svg version="1.0" xmlns="http://www.w3.org/2000/svg"
 width="512.000000pt" height="512.000000pt" viewBox="0 0 512.000000 512.000000"
 preserveAspectRatio="xMidYMid meet">

<g transform="translate(0.000000,512.000000) scale(0.100000,-0.100000)"
fill="#413B3B" stroke="none">
<path d="M259 4847 c-102 -43 -173 -110 -217 -206 -22 -47 -26 -71 -26 -151
-1 -87 2 -101 31 -162 40 -85 106 -151 191 -191 60 -29 77 -32 158 -32 84 0
95 2 166 38 87 43 142 98 185 186 25 50 28 67 28 156 0 88 -3 107 -27 157 -37
80 -107 152 -187 191 -57 28 -77 32 -156 35 -76 2 -99 -1 -146 -21z m238 -148
c118 -57 166 -199 107 -317 -72 -144 -257 -174 -373 -60 -45 44 -62 82 -68
147 -9 98 50 197 141 237 48 21 143 17 193 -7z"/>
<path d="M1031 4724 c-27 -35 -26 -57 3 -91 l24 -28 361 0 c358 0 361 0 382
22 27 27 29 75 4 103 -18 19 -30 20 -386 20 l-368 0 -20 -26z"/>
<path d="M4701 4724 c-24 -30 -26 -43 -10 -77 15 -32 49 -47 107 -47 l47 0
-180 -180 -180 -180 -70 69 c-38 37 -81 76 -95 85 -30 20 -72 21 -108 2 -15
-8 -111 -99 -214 -203 -165 -166 -188 -193 -188 -221 0 -42 31 -72 72 -72 29
0 53 20 205 172 l172 172 84 -81 c85 -82 123 -101 169 -88 13 4 119 102 236
218 l212 212 0 -68 c0 -54 4 -71 20 -87 30 -30 83 -27 109 6 19 24 21 40 21
184 0 144 -2 160 -21 184 l-20 26 -174 0 -174 0 -20 -26z"/>
<path d="M1031 4404 c-27 -35 -26 -57 3 -91 l24 -28 195 0 c178 0 197 2 216
19 27 25 28 79 1 106 -19 19 -33 20 -219 20 l-200 0 -20 -26z"/>
<path d="M2420 4074 c-606 -77 -1098 -473 -1284 -1034 -56 -169 -67 -238 -73
-440 -4 -157 -2 -203 15 -305 24 -138 65 -271 122 -392 74 -159 254 -406 303
-419 54 -13 107 37 93 88 -3 13 -31 52 -61 88 -156 182 -269 419 -312 654 -25
136 -22 372 6 503 61 290 193 528 403 729 256 244 549 368 903 381 176 6 327
-15 485 -68 461 -154 804 -537 912 -1020 31 -138 33 -416 5 -549 -109 -509
-463 -903 -942 -1048 -171 -52 -206 -57 -420 -57 -183 1 -209 3 -305 27 -139
35 -223 67 -348 133 -57 30 -112 55 -123 55 -28 0 -69 -44 -69 -76 0 -39 47
-76 173 -138 190 -92 366 -140 572 -155 270 -20 547 34 785 154 l93 47 386
-385 c413 -412 406 -407 507 -407 73 0 131 40 282 194 129 132 142 149 158
202 24 83 8 146 -56 222 -83 99 -254 260 -284 268 -41 10 -80 -22 -84 -71 -3
-36 2 -42 139 -181 122 -123 142 -148 142 -174 0 -27 -20 -51 -139 -171 -116
-117 -144 -139 -169 -139 -25 0 -77 48 -392 362 l-363 363 82 65 c72 57 168
157 236 244 l23 29 118 -117 c114 -112 121 -117 157 -114 48 4 80 43 69 85 -4
17 -55 77 -131 154 l-124 125 49 105 c59 125 94 227 123 363 30 137 32 444 5
581 -64 315 -200 569 -426 796 -223 222 -466 355 -773 420 -91 20 -382 34
-468 23z"/>
<path d="M295 3827 c-133 -44 -227 -144 -261 -277 -33 -130 5 -268 102 -364
115 -116 289 -145 440 -75 66 31 149 116 182 186 24 52 27 70 27 163 0 99 -2
109 -32 166 -40 76 -106 143 -181 179 -47 24 -72 29 -147 32 -56 2 -105 -2
-130 -10z m203 -153 c126 -52 178 -200 115 -325 -50 -98 -154 -145 -265 -119
-70 17 -148 93 -167 163 -23 81 6 185 66 240 61 54 174 73 251 41z"/>
<path d="M4365 3689 c-31 -18 -45 -40 -45 -72 0 -62 54 -100 110 -77 36 15 50
37 50 78 0 57 -67 98 -115 71z"/>
<path d="M4632 3673 c-12 -10 -24 -30 -28 -45 -5 -22 0 -34 25 -58 l31 -31
211 3 c208 3 211 3 230 27 25 30 24 62 -2 95 l-20 26 -214 0 c-188 0 -215 -2
-233 -17z"/>
<path d="M4345 3365 c-53 -52 -18 -135 56 -135 47 0 79 34 79 81 0 72 -84 106
-135 54z"/>
<path d="M4655 3380 c-49 -19 -64 -82 -30 -120 17 -19 30 -20 236 -20 l218 0
20 26 c34 43 26 86 -20 109 -22 12 -70 15 -216 14 -103 0 -197 -4 -208 -9z"/>
<path d="M2490 3179 c-281 -26 -604 -188 -863 -429 -91 -85 -111 -128 -105
-224 5 -83 32 -123 148 -224 291 -252 617 -392 912 -392 181 0 332 37 514 125
208 101 480 307 531 404 29 56 31 147 4 206 -32 72 -251 258 -302 258 -50 0
-87 -51 -70 -96 5 -13 39 -48 76 -76 121 -95 165 -143 165 -180 0 -47 -11 -62
-108 -143 -332 -279 -666 -393 -974 -334 -224 43 -484 186 -690 378 -51 48
-58 59 -58 93 0 34 7 46 52 90 75 71 205 169 311 231 307 182 598 214 901 100
83 -31 110 -32 137 -5 28 28 23 85 -11 111 -14 10 -64 31 -112 48 -157 53
-312 73 -458 59z"/>
<path d="M4642 3073 c-7 -3 -19 -18 -28 -35 -13 -25 -13 -35 -3 -59 6 -17 20
-34 30 -39 10 -6 110 -10 224 -10 205 0 206 0 230 25 14 13 25 36 25 50 0 14
-11 37 -25 50 -24 25 -24 25 -232 24 -114 0 -214 -3 -221 -6z"/>
<path d="M2459 2891 c-111 -44 -204 -146 -229 -251 -17 -70 -8 -183 18 -243
29 -65 110 -148 179 -183 53 -26 67 -29 158 -29 90 0 106 3 156 29 71 35 139
104 176 176 25 49 28 65 28 155 0 89 -3 106 -28 157 -36 74 -101 139 -175 175
-75 37 -210 44 -283 14z m219 -150 c204 -105 135 -411 -93 -411 -121 0 -214
94 -215 218 0 82 46 154 125 195 43 23 137 22 183 -2z"/>
<path d="M342 2819 c-123 -21 -248 -121 -293 -237 -32 -80 -31 -204 0 -285 29
-73 111 -164 183 -200 193 -98 427 -18 523 177 37 77 46 198 20 278 -60 187
-241 299 -433 267z m172 -171 c194 -99 155 -390 -59 -438 -146 -33 -279 77
-279 230 0 123 67 202 199 233 32 8 97 -4 139 -25z"/>
<path d="M4345 2755 c-45 -44 -26 -116 38 -138 22 -8 66 8 83 31 38 49 -4 132
-66 132 -19 0 -40 -9 -55 -25z"/>
<path d="M4625 2750 c-25 -28 -23 -76 4 -103 20 -21 32 -22 204 -25 100 -2
197 -1 215 3 68 13 95 80 49 123 -22 21 -31 22 -239 22 -203 0 -216 -1 -233
-20z"/>
<path d="M4643 2458 c-48 -23 -51 -103 -4 -127 12 -7 101 -11 230 -11 l210 0
20 26 c28 35 26 69 -4 99 -24 25 -24 25 -227 24 -120 0 -212 -5 -225 -11z"/>
<path d="M4363 2160 c-39 -16 -56 -77 -33 -119 16 -31 65 -46 100 -31 36 15
50 37 50 78 0 57 -62 95 -117 72z"/>
<path d="M4632 2143 c-12 -10 -24 -30 -28 -45 -5 -22 0 -34 25 -58 l31 -31
211 3 c208 3 211 3 230 27 25 30 24 62 -2 95 l-20 26 -214 0 c-188 0 -215 -2
-233 -17z"/>
<path d="M700 1207 c-13 -7 -35 -28 -47 -46 -23 -34 -23 -36 -23 -392 l0 -359
-45 0 -45 0 0 131 c0 207 -14 219 -249 219 -240 0 -251 -10 -251 -225 0 -122
-2 -137 -20 -155 -27 -27 -26 -71 3 -98 l23 -22 1006 0 1007 0 20 26 c34 43
26 86 -20 109 -21 11 -65 15 -174 15 l-145 0 0 233 c0 315 6 307 -250 307
-252 0 -250 2 -250 -319 l0 -221 -55 0 -55 0 0 368 c0 403 1 395 -60 427 -38
20 -332 21 -370 2z m280 -467 l0 -330 -100 0 -100 0 0 330 0 330 100 0 100 0
0 -330z m610 -135 l0 -195 -100 0 -100 0 0 195 0 195 100 0 100 0 0 -195z
m-1200 -95 l0 -100 -100 0 -100 0 0 100 0 100 100 0 100 0 0 -100z"/>
<path d="M2364 696 c-54 -45 -29 -128 43 -142 27 -5 37 -1 63 24 32 32 37 56
19 95 -22 49 -83 60 -125 23z"/>
<path d="M2641 684 c-26 -33 -27 -65 -2 -95 19 -24 22 -24 230 -27 l211 -3 31
31 c25 24 30 36 25 58 -14 59 -27 62 -261 62 l-214 0 -20 -26z"/>
<path d="M2363 388 c-28 -32 -34 -54 -22 -85 13 -36 38 -52 77 -53 43 0 82 38
82 80 0 69 -92 107 -137 58z"/>
<path d="M2665 398 c-49 -26 -58 -69 -24 -112 l20 -26 218 0 c239 0 241 0 256
62 6 22 1 33 -23 58 l-30 30 -199 0 c-124 0 -205 -5 -218 -12z"/>
</g>
</svg>
