<?xml version="1.0" standalone="no"?>
<!DOCTYPE svg PUBLIC "-//W3C//DTD SVG 20010904//EN"
 "http://www.w3.org/TR/2001/REC-SVG-20010904/DTD/svg10.dtd">
<svg version="1.0" xmlns="http://www.w3.org/2000/svg"
 width="512.000000pt" height="512.000000pt" viewBox="0 0 512.000000 512.000000"
 preserveAspectRatio="xMidYMid meet">

<g transform="translate(0.000000,512.000000) scale(0.100000,-0.100000)"
fill="#413B3B" stroke="none">
<path d="M1510 5014 c-192 -23 -395 -81 -546 -157 -157 -79 -270 -161 -405
-296 -187 -187 -301 -371 -379 -611 -59 -179 -75 -286 -75 -490 1 -197 14
-285 70 -466 149 -480 556 -878 1040 -1019 l80 -23 3 -186 2 -186 -34 0 c-18
0 -44 -9 -57 -19 l-24 -19 -3 -463 c-3 -538 2 -608 52 -713 61 -125 188 -226
324 -255 233 -49 472 91 543 320 18 56 19 99 19 589 l0 529 -22 15 c-12 9 -37
16 -55 16 l-33 0 2 186 3 186 83 24 c377 109 726 394 925 754 98 179 155 374
182 623 l7 58 106 -3 107 -3 5 -315 c5 -346 6 -351 70 -424 18 -20 56 -49 84
-63 44 -23 67 -27 166 -31 l115 -4 17 -68 c48 -198 189 -351 382 -415 93 -31
216 -37 306 -16 274 65 470 330 447 606 -25 288 -244 507 -532 532 -279 23
-557 -185 -607 -456 l-12 -63 -106 4 c-99 3 -109 5 -144 32 -68 52 -66 25 -66
749 l0 654 23 33 c43 65 67 75 186 78 l107 4 12 -64 c33 -161 155 -319 302
-392 236 -115 486 -73 670 113 179 180 220 433 106 659 -98 195 -296 316 -516
316 -123 1 -216 -28 -320 -99 -123 -84 -203 -198 -238 -343 l-17 -72 -96 0
c-133 0 -189 -18 -254 -83 -82 -83 -85 -98 -85 -449 l0 -298 -109 0 -110 0 -6
48 c-26 214 -49 312 -106 457 -192 494 -638 860 -1169 960 -82 16 -348 28
-420 19z m432 -144 c281 -59 515 -187 724 -395 246 -245 377 -526 418 -897 l6
-48 -144 0 -144 0 -11 80 c-40 271 -151 491 -342 675 -239 230 -520 337 -848
322 -324 -15 -614 -158 -821 -404 -167 -198 -255 -424 -267 -684 -15 -328 92
-609 322 -848 302 -313 736 -425 1158 -300 91 27 267 117 348 178 246 186 406
464 450 777 l12 85 141 -3 141 -3 -3 -60 c-5 -86 -36 -238 -67 -330 -71 -214
-185 -396 -350 -560 -212 -213 -460 -344 -755 -401 -130 -25 -379 -25 -510 0
-447 85 -826 370 -1028 772 -53 105 -97 233 -124 357 -31 146 -31 418 0 564
132 612 611 1056 1232 1143 103 14 351 4 462 -20z m2573 -120 c138 -22 280
-128 339 -254 58 -122 57 -275 -1 -396 -37 -77 -130 -171 -207 -209 -330 -162
-707 110 -655 475 26 183 171 340 352 379 77 17 97 17 172 5z m-2613 -288
c309 -82 569 -303 693 -590 34 -78 67 -199 80 -294 l6 -48 -35 0 -36 0 0 77
c0 115 3 113 -201 113 -139 0 -170 -3 -183 -16 -14 -14 -16 -78 -16 -559 l0
-543 -44 -26 c-25 -14 -47 -26 -50 -26 -3 0 -6 213 -6 473 0 411 -2 475 -16
495 -15 21 -21 22 -189 22 -168 0 -174 -1 -189 -22 -14 -20 -16 -89 -16 -550
l0 -528 -45 0 -45 0 0 769 c0 764 -2 813 -33 833 -7 4 -87 8 -179 8 -161 0
-167 -1 -182 -22 -14 -20 -16 -108 -16 -750 0 -401 -3 -728 -6 -728 -3 0 -25
12 -50 26 l-44 26 0 366 c0 326 -2 367 -17 384 -14 16 -34 18 -181 18 -212 0
-202 7 -202 -149 -1 -130 -8 -131 -41 -4 -26 101 -35 284 -20 394 62 431 399
782 829 864 108 20 332 14 434 -13z m-412 -1267 c0 -734 0 -735 -20 -735 -12
0 -50 7 -85 16 l-65 16 0 719 0 719 85 0 85 0 0 -735z m1000 36 l0 -370 -80
-83 -79 -83 -1 453 0 452 80 0 80 0 0 -369z m-500 -275 l0 -464 -65 -16 c-118
-30 -105 -87 -105 464 l0 480 85 0 85 0 0 -464z m682 399 c-3 -56 -37 -208
-52 -233 -6 -12 -9 30 -10 129 0 80 3 149 7 153 4 4 19 6 33 4 23 -3 25 -6 22
-53z m-1692 -380 l0 -276 -22 17 c-13 10 -49 47 -80 83 l-58 65 0 193 0 193
80 0 80 0 0 -275z m3623 85 c31 -12 82 -40 112 -63 224 -171 247 -485 49 -685
-310 -311 -834 -50 -773 386 25 180 162 331 344 378 70 19 196 11 268 -16z
m-2948 -1145 c83 0 169 3 193 8 l42 7 0 -175 0 -175 -235 0 -235 0 0 175 0
175 43 -7 c23 -5 110 -8 192 -8z m345 -935 c0 -467 -1 -481 -22 -537 -15 -42
-38 -75 -83 -120 -53 -53 -71 -64 -134 -84 -86 -26 -168 -22 -244 10 -61 27
-142 103 -175 166 l-27 50 -3 498 -3 497 346 0 345 0 0 -480z"/>
<path d="M4519 4379 c-77 -73 -143 -128 -148 -123 -4 5 -27 34 -51 64 -54 67
-58 70 -92 70 -26 0 -58 -31 -58 -56 0 -13 106 -157 151 -205 47 -50 59 -44
247 132 145 135 172 165 172 189 0 16 -7 36 -16 44 -34 35 -60 20 -205 -115z"/>
<path d="M4523 2715 c-73 -69 -137 -125 -142 -125 -5 0 -33 29 -61 65 -60 76
-89 88 -126 54 -13 -12 -24 -30 -24 -40 0 -24 154 -217 184 -230 14 -7 30 -8
39 -3 9 5 90 78 181 163 148 136 166 157 166 185 0 40 -16 56 -54 56 -26 -1
-54 -23 -163 -125z"/>
<path d="M1801 604 c-12 -15 -21 -39 -21 -54 0 -50 -52 -98 -119 -109 -20 -4
-42 -16 -53 -32 -16 -22 -17 -29 -7 -52 40 -88 233 -7 285 119 20 48 18 117
-4 137 -27 24 -58 21 -81 -9z"/>
<path d="M3585 2146 c-16 -7 -131 -121 -255 -253 l-225 -240 -115 -5 c-169 -7
-243 -47 -299 -160 l-31 -61 0 -547 c0 -605 0 -601 64 -677 19 -21 58 -52 87
-68 l54 -30 970 0 c966 0 970 0 1016 21 57 27 115 85 143 144 20 44 21 60 24
584 2 459 0 546 -13 591 -20 69 -87 144 -157 176 l-53 24 -492 3 -493 3 0 198
c0 189 -1 200 -23 232 -48 72 -128 98 -202 65z m93 -118 c9 -9 12 -74 12 -233
0 -183 3 -224 16 -243 l15 -22 517 0 c481 0 520 -2 557 -19 46 -21 79 -54 94
-94 7 -19 11 -204 11 -546 l0 -518 -23 -43 c-16 -30 -37 -51 -67 -67 l-43 -23
-931 0 -931 0 -40 23 c-22 12 -50 38 -62 56 l-23 34 0 534 c0 601 -2 581 73
631 37 24 51 27 171 32 l132 5 90 95 c50 52 157 166 239 253 81 86 156 157
165 157 9 0 21 -5 28 -12z"/>
<path d="M3062 1228 c-24 -31 -23 -57 2 -83 l25 -25 571 0 c557 0 570 0 590
20 25 25 26 62 2 83 -17 15 -73 17 -599 17 -452 0 -583 -3 -591 -12z"/>
<path d="M4402 1228 c-24 -31 -23 -57 2 -83 23 -23 33 -25 106 -25 67 0 83 3
100 20 25 25 26 62 2 83 -23 21 -193 25 -210 5z"/>
<path d="M3062 918 c-24 -31 -23 -57 2 -83 l26 -25 576 2 c557 3 576 4 590 22
19 27 18 60 -4 79 -17 15 -73 17 -599 17 -452 0 -583 -3 -591 -12z"/>
<path d="M4402 918 c-24 -31 -23 -57 3 -84 25 -25 30 -26 111 -23 71 3 88 7
100 23 19 27 18 60 -4 79 -23 21 -193 25 -210 5z"/>
<path d="M3054 595 c-21 -33 -7 -71 32 -85 17 -7 231 -9 591 -8 546 3 565 4
579 22 18 26 18 61 -2 80 -14 14 -82 16 -599 16 l-585 0 -16 -25z"/>
<path d="M4394 595 c-14 -21 -15 -31 -6 -51 16 -34 55 -46 140 -42 79 4 102
18 102 64 0 44 -24 54 -125 54 -90 0 -95 -1 -111 -25z"/>
</g>
</svg>
