<?xml version="1.0" standalone="no"?>
<!DOCTYPE svg PUBLIC "-//W3C//DTD SVG 20010904//EN"
 "http://www.w3.org/TR/2001/REC-SVG-20010904/DTD/svg10.dtd">
<svg version="1.0" xmlns="http://www.w3.org/2000/svg"
 width="512.000000pt" height="512.000000pt" viewBox="0 0 512.000000 512.000000"
 preserveAspectRatio="xMidYMid meet">

<g transform="translate(0.000000,512.000000) scale(0.100000,-0.100000)"
fill="#413B3B" stroke="none">
<path d="M3920 5102 c-119 -61 -457 -262 -481 -286 -40 -41 -50 -113 -25 -176
5 -11 -124 -90 -531 -325 -296 -171 -552 -323 -570 -338 -43 -38 -60 -96 -44
-156 6 -24 10 -45 9 -46 -2 -1 -31 -18 -64 -38 -76 -46 -87 -58 -88 -104 -1
-34 -6 -40 -58 -71 l-57 -34 -30 23 c-18 13 -38 20 -50 16 -40 -10 -814 -462
-846 -493 -43 -43 -68 -99 -71 -164 -3 -64 21 -45 -256 -205 l-188 -107 -39
35 c-42 38 -93 54 -138 42 -51 -12 -223 -116 -246 -149 -16 -23 -22 -45 -22
-86 1 -53 7 -66 217 -429 120 -205 225 -382 235 -393 28 -31 68 -48 114 -48
33 0 64 12 141 56 100 57 143 96 154 140 7 26 1 87 -10 115 -5 11 44 44 213
142 121 70 223 127 228 127 4 0 30 -11 57 -25 36 -18 65 -25 109 -25 68 0 80
5 310 138 87 51 162 92 166 92 5 0 17 -12 26 -27 10 -16 28 -39 41 -53 20 -23
23 -36 26 -143 3 -116 4 -119 31 -143 34 -29 56 -30 91 -3 23 18 26 28 26 80
0 32 3 59 8 59 4 0 32 -10 62 -22 41 -16 84 -22 170 -26 104 -4 122 -2 193 22
42 14 80 26 82 26 3 0 5 -103 5 -230 l0 -230 -260 0 -260 0 0 55 c0 64 -22 95
-69 95 -49 0 -73 -29 -79 -92 l-4 -56 -162 -4 c-161 -3 -163 -3 -212 -33 -30
-19 -60 -49 -79 -79 l-30 -49 -3 -186 c-3 -181 -3 -187 20 -221 13 -19 41 -44
63 -55 22 -11 42 -21 43 -22 2 -1 -57 -186 -133 -412 -145 -439 -146 -441
-105 -509 36 -59 80 -72 250 -72 170 0 203 8 242 61 15 20 61 140 109 284 l84
250 5 -250 c6 -280 6 -282 79 -323 36 -21 51 -22 240 -22 180 0 206 2 240 19
74 38 75 45 81 326 l5 250 83 -247 c46 -136 93 -261 105 -279 41 -60 73 -69
247 -69 174 0 206 9 247 70 45 66 45 67 -102 510 -75 226 -135 412 -133 413 1
1 21 11 43 22 22 11 50 36 63 55 23 34 23 40 20 221 l-3 186 -30 49 c-19 30
-49 60 -79 79 -49 30 -51 30 -213 33 l-163 4 0 287 0 287 41 54 c89 118 126
240 116 394 l-5 92 515 298 514 297 39 -35 c84 -76 115 -69 404 99 130 75 245
148 256 162 36 46 45 97 27 144 l-17 42 30 33 c67 77 110 188 110 285 0 87
-34 162 -221 486 -192 333 -234 389 -320 434 -91 46 -201 61 -284 38 -36 -10
-41 -9 -60 14 -51 63 -130 83 -195 49z m444 -782 c201 -349 365 -639 363 -644
-4 -11 -427 -259 -432 -254 -12 11 -738 1275 -739 1285 -1 15 426 264 436 255
3 -4 171 -293 372 -642z m12 549 c22 -10 52 -31 67 -46 26 -29 362 -601 386
-661 23 -55 17 -141 -13 -200 -15 -29 -28 -52 -30 -52 -16 0 -575 979 -562
984 21 9 111 -6 152 -25z m-1681 -1854 c76 -26 153 -83 201 -147 60 -83 79
-143 79 -258 0 -86 -3 -101 -32 -162 -44 -93 -109 -160 -200 -205 -65 -32 -86
-37 -161 -41 -70 -3 -99 0 -151 18 -216 73 -332 287 -275 505 60 233 310 367
539 290z m-1481 -523 c64 -112 114 -207 111 -212 -7 -11 -130 -80 -143 -80
-16 0 -254 422 -244 432 5 5 38 26 73 47 47 28 67 35 75 27 6 -6 64 -102 128
-214z m-295 -152 c66 -116 121 -214 121 -219 0 -5 -32 -28 -72 -51 -58 -33
-74 -38 -83 -28 -16 17 -247 419 -243 423 11 9 144 84 149 85 4 0 61 -95 128
-210z m-284 -173 c113 -198 205 -360 203 -361 -18 -15 -150 -88 -152 -85 -9
10 -408 705 -409 713 -2 8 144 99 149 93 1 -1 95 -163 209 -360z m1565 -1184
c0 -4 -12 -44 -27 -90 l-27 -83 -127 0 -128 0 31 90 30 90 124 0 c68 0 124 -3
124 -7z m530 -83 l0 -90 -170 0 -170 0 0 90 0 90 170 0 170 0 0 -90z m468 0
l31 -90 -128 0 -127 0 -27 83 c-15 46 -27 86 -27 90 0 4 56 7 124 7 l124 0 30
-90z m-1108 -247 c0 -4 -37 -119 -82 -255 l-83 -248 -122 0 c-92 0 -123 3
-123 12 0 7 36 122 81 255 l81 243 124 0 c68 0 124 -3 124 -7z m640 -248 l0
-255 -170 0 -170 0 0 255 0 255 170 0 170 0 0 -255z m629 12 c45 -133 81 -248
81 -255 0 -9 -31 -12 -123 -12 l-122 0 -83 248 c-45 136 -82 251 -82 255 0 4
56 7 124 7 l124 0 81 -243z"/>
<path d="M2500 2851 c-159 -52 -227 -223 -144 -358 64 -103 195 -141 307 -90
108 49 160 168 127 288 -13 47 -72 115 -122 140 -45 23 -129 33 -168 20z m128
-177 c24 -28 28 -64 10 -97 -17 -34 -39 -46 -80 -47 -67 0 -111 83 -72 138 34
48 102 51 142 6z"/>
<path d="M2010 4928 c-15 -17 -20 -35 -20 -80 l0 -58 -50 0 c-62 0 -96 -15
-110 -49 -13 -33 0 -75 29 -90 11 -6 45 -11 75 -11 l56 0 0 -60 c0 -52 4 -65
26 -87 20 -20 31 -24 57 -19 48 10 61 29 65 101 l4 65 59 0 c71 0 99 21 99 74
0 50 -37 76 -106 76 l-54 0 0 54 c0 69 -26 106 -75 106 -22 0 -41 -8 -55 -22z"/>
<path d="M685 4100 c-12 -14 -20 -41 -23 -80 l-4 -60 -53 0 c-68 0 -105 -26
-105 -75 0 -49 37 -75 105 -75 l53 0 4 -60 c5 -71 29 -103 77 -103 52 0 71 27
71 100 l0 63 60 0 c51 0 65 4 85 25 14 13 25 36 25 50 0 14 -11 37 -25 50 -20
21 -34 25 -85 25 l-60 0 0 58 c0 75 -18 102 -69 102 -25 0 -44 -7 -56 -20z"/>
<path d="M4169 2451 c-19 -15 -24 -30 -27 -85 l-4 -66 -59 0 c-71 0 -99 -21
-99 -73 0 -49 28 -70 100 -75 l60 -4 0 -53 c0 -67 27 -105 74 -105 51 0 76 34
76 103 l0 57 56 0 c48 0 59 4 85 29 34 35 36 59 8 95 -18 23 -27 26 -85 26
l-64 0 0 60 c0 51 -4 65 -25 85 -29 30 -64 32 -96 6z"/>
</g>
</svg>
